<?xml version="1.0" encoding="utf-8"?>
<!-- Generator: Adobe Illustrator 25.3.1, SVG Export Plug-In . SVG Version: 6.00 Build 0)  -->
<svg version="1.1" baseProfile="basic" id="Layer_1"
     xmlns="http://www.w3.org/2000/svg" x="0px" y="0px"
     viewBox="0 0 1627.5 786"
     xml:space="preserve">
    <g>
        <g>
            <polygon class="st0" points="19.5,33.2 265,768.7 419.1,597.4 287.8,177.8 		"/>
            <polygon class="st0" points="509,361.9 350.6,274.9 447.6,566 541.8,466.1 		"/>
        </g>
        <ellipse class="st0" cx="870.2" cy="720.6" rx="478.4" ry="2.1"/>
        <ellipse class="st0" cx="870.2" cy="743.5" rx="478.4" ry="4.9"/>
        <ellipse class="st0" cx="870.2" cy="696.6" rx="478.4" ry="2.1"/>
        <path class="st0" d="M1588.8,268c-3.6-29.6-12.5-57.8-22.2-85.8c-5.2-14.9-14-27.6-28.1-35.1c-15-8.1-30.7-14.8-46-22.5
            c-3.6-1.8-9.3-5.4-9.1-7.7c0.6-7.3,1.9-15.9,6.3-21.2c3.1-3.8,5.5-6.7,5.4-11.3c-0.3-10.9-0.9-21.8-1.3-32.7
            c-0.5-17.6-8.9-28.9-26.1-31.7c-9.6-1.6-20-1.2-29.6,0.3c-14.2,2.3-20.7,10.1-22.2,24.4c-1.2,10.9-1.8,21.8-2.2,32.8
            c-0.1,2.6,1.3,5.4,2.4,7.9c2.4,5.9,5.4,11.5,7.5,17.5c5.6,16.6,3.3,21.1-13.9,24.2c-10.2,1.9-20.9,1.5-31.2,3
            c-16.3,2.4-26.6,14.5-27.5,29.9c-0.4,7.7-2.5,15.3-4.2,22.9c-1.3,5.7-4,11.2-4.8,16.9c-3.4,25-6.3,50.2-9.5,75.2
            c-2.2,17.2-5.8,33.8-12.3,50.3c-6.1,15.4-7.8,32.6-11.4,49c-0.3,1.3,0.3,2.8,0.6,6c11-9,12.2-21.4,17.3-32.8
            c0.3,5.4,0.6,9.7,0.9,14c0.7,0.1,1.5,0.2,2.2,0.3c0.7-2,1.8-3.9,2.1-6c1.8-12.6,6.4-23.8,13.4-34.6c3.5-5.4,3.6-12.9,5-19.5
            c1.1-5.4,1-11.3,2.9-16.4c7.9-21.7,16.3-43.3,25-66.1c3.1,13.2,7.7,25.9,8.8,38.8c1.5,17,0.2,34.2,0.1,51.3
            c-0.1,8.9-1.4,17.1-8.2,23.9c-2.5,2.5-3.6,6.8-4.4,10.4c-4.9,24-11,47.9-5.6,72.8c2.9,13.7,3.1,28.1,7.2,41.3
            c8.7,28.6,7.8,57,1.6,85.5c-4,18.6-3.8,37,0.3,55.4c6,26.4,12,52.7,17.5,79.2c1.4,6.8,1.6,14.2,0.9,21.1c-1.7,17-4.7,33.9-6.3,50.9
            c-1.3,14.2,7,20.3,20.7,16c5.6-1.7,10.9-4.3,16.4-6.5c13.6-5.5,14.2-6.6,11.4-21.6c-0.3-1.5-0.5-3-0.9-4.5
            c-4.1-16.5-10.2-32.9-11.9-49.7c-1.9-18.4-0.4-37.2,0.8-55.7c1.2-18.5,4.5-36.9,5.5-55.5c0.4-7.6-4.2-15.4-4.1-23.2
            c0.1-11.6,3.2-23.2,3.5-34.9c0.9-26.8,6.5-52.6,14.3-80.4c0.6,5.3,1.4,8.3,1.3,11.3c-0.4,17.1-0.9,34.2-1.4,51.3
            c-0.7,26-3.5,52.1,6.2,77.3c0.9,2.2-0.8,5.7-1.8,8.4c-1.8,5-5.6,9.8-5.6,14.7c0,14.5-4.1,27.5-10.6,40.2
            c-5.1,10.2-7.9,21.2-4.7,32.7c3.5,12.5,14.7,16.8,24.9,8.9c15.6-12.2,27-26.9,27.3-48.1c0.4-24.7,3.7-48.8,16.9-70.5
            c4.2-6.9,4.5-15.3,0.1-21.9c-3.8-5.6-3.3-10.1-1.6-15.7c6.8-22.5,13.4-45,20.1-67.5c1.6-5.3,1-12.1,8.9-13.4c0.7-0.1,1.4-2,1.7-3.1
            c5.7-18.5,9.8-37.3,6.6-56.6c-3.9-23.4-3.5-46.8-3.2-70.3c0.1-6.8,2.8-8,8.5-9.6c13.2-3.7,26.3-7.9,39-13.1
            C1587.1,285.4,1589.9,277.4,1588.8,268z M1532,269.7c2-8.1,3.6-14.6,5.5-22c4.8,4.7,8.5,8.3,13.1,12.8
            C1543.9,263.8,1538.7,266.4,1532,269.7z"/>
        <g>
            <path class="st0" d="M919.2,525.8c0,36.8-12.7,67-38,90.6c-29.6,27.7-72.8,41.5-129.6,41.5c-56.6,0-99.7-13.8-129.3-41.5
                c-25.4-23.7-38-53.9-38-90.6V345.2c0-36.8,12.7-67,38-90.6c29.6-27.7,72.7-41.5,129.3-41.5c56.8,0,100,13.8,129.6,41.5
                c25.4,23.7,38,53.9,38,90.6V525.8z M821.9,353.7c0-36.3-23.5-54.5-70.4-54.5c-46.7,0-70,18.2-70,54.5v163.5
                c0,36.3,23.3,54.5,70,54.5c46.9,0,70.4-18.2,70.4-54.5V353.7z"/>
            <path class="st0" d="M1094.7,571.7h191.4v79.9H983.8v-79.2L1174,299.2H992.4v-79.9H1283v79.9L1094.7,571.7z"/>
        </g>
    </g>
</svg>
